<?xml version="1.0" encoding="utf-8"?>
<!-- Generator: Adobe Illustrator 21.0.0, SVG Export Plug-In . SVG Version: 6.00 Build 0)  -->
<svg version="1.1" id="Layer_1" xmlns="http://www.w3.org/2000/svg" xmlns:xlink="http://www.w3.org/1999/xlink" x="0px" y="0px"
	 viewBox="0 0 512 512" style="enable-background:new 0 0 512 512;" xml:space="preserve">
<g>
	<path d="M172,72.9c-15.1-0.3-27.7,2.9-35.4,5.1H136L90.3,92.3C36.6,108.8,0,158.5,0,214.6v96.6c0,70.5,57.5,128,128,128h181.1
		c22.3,0.5,43.9-12.6,52.6-34.3c5.5-13.8,4.7-28.3-0.6-41.1c11.2-5.9,20.7-15.5,25.7-28c5.7-14.4,4.8-29.6-1.1-42.9h71.4
		c30.1,0,54.9-24.8,54.9-54.9s-24.8-54.9-54.9-54.9h-28l7.4-2.3c28.8-8.7,45.3-39.8,36.6-68.6S433.4,67,404.6,75.7l-154.3,47.4
		c-1.4-3.4-2.9-7.1-5.1-10.9C236,97,217.5,79.7,188,74.6C182.5,73.6,177.1,72.9,172,72.9z M422.9,110c7.1,0.8,13.2,5.7,15.4,13.1
		c3,9.9-2.7,19.9-12.6,22.9l-125.1,37.7l6.3,20.6v15.4h150.3c10.4,0,18.3,7.9,18.3,18.3s-7.9,18.3-18.3,18.3H336.6l-48-18.9
		c-6.9-2.8-14.1-4.1-21.1-4l-9.7-74.9l157.7-48C417.9,109.8,420.5,109.7,422.9,110z M171.4,110.6c3.5,0,7.1,0,10.3,0.6
		c19.6,3.4,27.2,12,32,20c4.8,8,5.1,13.7,5.1,13.7v1.1l15.4,117.7l0.6,1.7c2.3,9.6-3.5,18.9-13.1,21.1c-5.9,1.4-8.9,0.6-12-1.1
		c-3.1-1.8-6.9-5.6-9.7-13.7l-22.9-88.6c-1.4-5.4-5.3-9.9-10.4-12.1c-5.1-2.2-11-2-15.9,0.6l-30.3,16.6c-8.9,4.9-12.1,16-7.1,24.9
		c4.9,8.9,16,12.1,24.9,7.1l9.1-5.1l17.7,67.4l0.6,1.7c4.9,14.1,13.4,25.5,25.1,32.6c9.6,5.8,20.9,8,32,6.9
		c-5.8,5.4-10.6,12.2-13.7,20c-8.4,20.9-3.1,43.9,12,58.9H128c-50.7,0-91.4-40.7-91.4-91.4v-96.6c0-40.2,26.1-75.6,64.6-87.4
		l45.7-13.7C150.6,112.3,161,110.6,171.4,110.6z M270.9,270.6l4,0.6l68,27.4c9.6,3.9,14.1,13.9,10.3,23.4s-14.4,14.1-24,10.3
		l-68-26.9l-2.3-1.7C266.1,294.4,270.7,282.7,270.9,270.6z M259.4,346c2.4,0,5,0.2,7.4,1.1l24.6,9.7l24,9.7l2.3,0.6
		c9.6,3.9,14.1,14.4,10.3,24c-2.8,7-9,11.1-16,11.4h-0.6c-2.4,0.1-5-0.2-7.4-1.1l-50.9-20.6c-9.6-3.9-14.1-14.4-10.3-24
		c1.9-4.8,5.4-7.9,9.7-9.7C254.7,346.2,257,346,259.4,346z"/>
</g>
</svg>
