<?xml version="1.0" encoding="utf-8"?>
<!-- Generator: Adobe Illustrator 21.0.0, SVG Export Plug-In . SVG Version: 6.00 Build 0)  -->
<svg version="1.1" id="Layer_1" xmlns="http://www.w3.org/2000/svg" xmlns:xlink="http://www.w3.org/1999/xlink" x="0px" y="0px"
	 viewBox="0 0 512 512" style="enable-background:new 0 0 512 512;" xml:space="preserve">
<g>
	<path d="M274.3,0C249,0,228,17.7,221.7,41.1c-6.4-2.6-13.2-4.6-20.6-4.6c-30.1,0-54.9,24.8-54.9,54.9V288l-16-16
		c-21.3-21.3-56.4-21.3-77.7,0s-21.3,56.4,0,77.7l124,124c21.5,21.4,51.2,38.3,86.3,38.3h84.6c70.5,0,128-57.5,128-128V164.6
		c0-30.1-24.8-54.9-54.9-54.9c-6.4,0-12.5,1.4-18.3,3.4V91.4c0-30.1-24.8-54.9-54.9-54.9c-7.4,0-14.1,1.9-20.6,4.6
		C320.6,17.7,299.6,0,274.3,0z M274.3,36.6c10.4,0,18.3,7.9,18.3,18.3v182.9h36.6V91.4c0-10.4,7.9-18.3,18.3-18.3
		s18.3,7.9,18.3,18.3v146.3h36.6v-73.1c0-10.4,7.9-18.3,18.3-18.3c10.4,0,18.3,7.9,18.3,18.3V384c0,50.7-40.7,91.4-91.4,91.4h-84.6
		c-23.3,0-43.3-11.4-60-28L78.3,324c-7.3-7.3-7.3-19,0-26.3c7.3-7.3,19-7.3,26.3,0l46.9,47.4l31.4,31.4V91.4
		c0-10.4,7.9-18.3,18.3-18.3s18.3,7.9,18.3,18.3v146.3H256V54.9C256,44.5,263.9,36.6,274.3,36.6z"/>
</g>
</svg>
