<?xml version="1.0" encoding="utf-8"?>
<!-- Generator: Adobe Illustrator 21.0.0, SVG Export Plug-In . SVG Version: 6.00 Build 0)  -->
<svg version="1.1" id="Layer_1" xmlns="http://www.w3.org/2000/svg" xmlns:xlink="http://www.w3.org/1999/xlink" x="0px" y="0px"
	 viewBox="0 0 512 512" style="enable-background:new 0 0 512 512;" xml:space="preserve">
<g>
	<path d="M243.8,0c-25.9,0-48.7,13.7-61.7,34.3c-10.7-6.1-22.8-9.9-35.8-9.9c-40.1,0-73.1,33-73.1,73.1v89.1l-51,65.5
		c-31.1,40.3-29,98.1,4.6,136.4l57.9,65.5c32.4,36.9,79,57.9,128,57.9h128.8c94,0,170.7-76.7,170.7-170.7V121.9
		c0-40.1-33-73.1-73.1-73.1c-13,0-25.1,3.8-35.8,9.9c-13-20.6-35.8-34.3-61.7-34.3c-13,0-25.1,3.8-35.8,9.9
		C292.5,13.7,269.7,0,243.8,0z M243.8,48.8c13.8,0,24.4,10.6,24.4,24.4v73.1h48.8V97.5c0-13.8,10.6-24.4,24.4-24.4
		c13.8,0,24.4,10.6,24.4,24.4v48.8h48.8v-24.4c0-13.8,10.6-24.4,24.4-24.4c13.8,0,24.4,10.6,24.4,24.4v219.4
		c0,67.6-54.3,121.9-121.9,121.9H212.6c-35,0-68.3-14.8-91.4-41.1l-57.9-66.3c-18.4-21-19.3-51-2.3-73.1l12.2-16v25.9h48.8v-195
		c0-13.8,10.6-24.4,24.4-24.4s24.4,10.6,24.4,24.4v48.8h48.8V73.1C219.4,59.3,230,48.8,243.8,48.8z"/>
</g>
</svg>
